<svg width="1024" height="1024" viewBox="0 0 1024 1024" fill="none" xmlns="http://www.w3.org/2000/svg">
<mask id="mask0_9_2" style="mask-type:luminance" maskUnits="userSpaceOnUse" x="100" y="98" width="824" height="824">
<path fill-rule="evenodd" clip-rule="evenodd" d="M924 354.627C924 344.845 924.004 335.062 923.944 325.279C923.895 317.038 923.8 308.799 923.576 300.562C923.092 282.609 922.033 264.502 918.84 246.749C915.602 228.741 910.314 211.98 901.981 195.617C893.789 179.534 883.088 164.817 870.32 152.058C857.555 139.299 842.834 128.605 826.746 120.418C810.366 112.083 793.587 106.797 775.558 103.56C757.803 100.372 739.691 99.315 721.738 98.83C713.495 98.607 705.253 98.513 697.008 98.462C687.22 98.402 677.432 98.407 667.644 98.407L553.997 98H468.997L357.361 98.407C347.554 98.407 337.747 98.402 327.94 98.462C319.678 98.513 311.42 98.607 303.161 98.83C285.167 99.315 267.014 100.373 249.217 103.565C231.164 106.801 214.36 112.085 197.958 120.414C181.835 128.602 167.083 139.297 154.291 152.058C141.501 164.816 130.78 179.53 122.573 195.61C114.217 211.981 108.919 228.752 105.673 246.77C102.477 264.516 101.418 282.617 100.931 300.562C100.709 308.8 100.613 317.039 100.563 325.279C100.503 335.063 100 347.216 100 356.999L100.003 467.089L100 552.998L100.508 665.427C100.508 675.223 100.504 685.019 100.563 694.815C100.613 703.067 100.709 711.317 100.932 719.566C101.418 737.542 102.479 755.675 105.678 773.452C108.923 791.484 114.22 808.269 122.569 824.653C130.777 840.759 141.5 855.495 154.291 868.272C167.082 881.049 181.83 891.757 197.95 899.956C214.362 908.302 231.174 913.595 249.238 916.836C267.027 920.029 285.174 921.088 303.161 921.573C311.42 921.796 319.679 921.891 327.941 921.941C337.748 922.001 347.554 921.997 357.361 921.997L470.006 922H555.217L667.644 921.996C677.432 921.996 687.22 922.001 697.008 921.941C705.253 921.891 713.495 921.796 721.738 921.573C739.698 921.087 757.816 920.027 775.579 916.832C793.597 913.591 810.368 908.3 826.739 899.959C842.831 891.761 857.554 881.051 870.32 868.272C883.086 855.497 893.786 840.763 901.978 824.66C910.316 808.268 915.604 791.475 918.844 773.431C922.034 755.661 923.092 737.535 923.577 719.566C923.8 711.316 923.895 703.066 923.944 694.815C924.005 685.019 924 675.223 924 665.427C924 665.427 923.994 554.983 923.994 552.998V466.999C923.994 465.533 924 354.627 924 354.627Z" fill="white"/>
</mask>
<g mask="url(#mask0_9_2)">
<rect x="100" y="98" width="824" height="824" rx="126" fill="#181919"/>
<rect x="256" y="254" width="512" height="512" rx="120" fill="#D9D9D9"/>
<path d="M388.769 602.6C379.929 602.6 371.956 601.213 364.849 598.44C357.916 595.667 352.369 590.9 348.209 584.14C344.049 577.207 341.969 567.673 341.969 555.54V487.16H306.349V458.04H431.149V487.16H380.709V555.54C380.709 559.18 381.402 562.213 382.789 564.64C384.176 567.067 386.169 568.887 388.769 570.1C391.369 571.14 394.316 571.66 397.609 571.66C401.942 571.66 406.102 571.227 410.089 570.36C414.076 569.493 418.062 568.453 422.049 567.24V596.1C418.236 597.833 413.382 599.307 407.489 600.52C401.769 601.907 395.529 602.6 388.769 602.6ZM491.709 657.2H457.909V480.4H491.709V657.2ZM589.989 540.2C589.989 553.72 587.302 565.247 581.929 574.78C576.556 584.313 569.449 591.507 560.609 596.36C551.942 601.213 542.582 603.64 532.529 603.64C522.302 603.64 513.375 601.04 505.749 595.84C498.295 590.64 492.489 583.273 488.329 573.74C484.342 564.207 482.349 553.027 482.349 540.2C482.349 527.2 484.342 516.02 488.329 506.66C492.489 497.127 498.295 489.76 505.749 484.56C513.375 479.36 522.302 476.76 532.529 476.76C542.582 476.76 551.942 479.187 560.609 484.04C569.449 488.893 576.556 496.087 581.929 505.62C587.302 514.98 589.989 526.507 589.989 540.2ZM555.149 540.2C555.149 533.093 553.676 527.027 550.729 522C547.782 516.973 543.795 513.16 538.769 510.56C533.915 507.96 528.542 506.66 522.649 506.66C517.622 506.66 512.682 507.96 507.829 510.56C503.149 512.987 499.249 516.713 496.129 521.74C493.182 526.767 491.709 532.92 491.709 540.2C491.709 547.48 493.182 553.633 496.129 558.66C499.249 563.687 503.149 567.5 507.829 570.1C512.682 572.527 517.622 573.74 522.649 573.74C528.542 573.74 533.915 572.44 538.769 569.84C543.795 567.24 547.782 563.427 550.729 558.4C553.676 553.373 555.149 547.307 555.149 540.2ZM725.166 480.4L647.166 657.2H612.586L642.746 588.04L593.086 480.4H630.526L669.006 575.56L652.366 575.04L690.066 480.4H725.166Z" fill="#181919"/>
<rect y="-2" width="1024" height="1024" fill="#595DAF" fill-opacity="0.41" style="mix-blend-mode:darken"/>
<rect y="-2" width="1024" height="1024" fill="#595DAF" fill-opacity="0.41" style="mix-blend-mode:darken"/>
<rect y="-2" width="1024" height="1024" fill="url(#paint0_linear_9_2)"/>
</g>
<defs>
<linearGradient id="paint0_linear_9_2" x1="512" y1="-442" x2="512" y2="674" gradientUnits="userSpaceOnUse">
<stop stop-color="white" stop-opacity="0.06"/>
<stop offset="1" stop-color="white" stop-opacity="0"/>
</linearGradient>
</defs>
</svg>
